<?xml version="1.0" encoding="iso-8859-1"?>
<!-- Uploaded to: SVG Repo, www.svgrepo.com, Generator: SVG Repo Mixer Tools -->
<!DOCTYPE svg PUBLIC "-//W3C//DTD SVG 1.1//EN" "http://www.w3.org/Graphics/SVG/1.1/DTD/svg11.dtd">
<svg fill="#007229" version="1.1" id="Capa_1" xmlns="http://www.w3.org/2000/svg" xmlns:xlink="http://www.w3.org/1999/xlink" 
	 width="30px" height="30px" viewBox="0 0 235.511 235.511"
	 xml:space="preserve">
<g>
	<g>
		<path d="M115.144,54.483c-12.017,4.32-19.979,17.586-23.694,39.439c-0.358,2.128,1.078,4.14,3.206,4.5
			c2.126,0.391,4.144-1.07,4.496-3.204c3.146-18.606,9.586-30.152,18.637-33.388c7.853-2.875,16.12,1.168,18.893,3.573
			c19.152,16.587-23.589,98.511-59.023,153.22L77.65,83.012c1.38-24.87,17.913-32.087,29.979-37.361l2.695-1.176
			c7.989-3.597,9.882-8.598,10.062-12.161C121.101,18.332,96.5,3.378,91.562,0.519c-1.863-1.066-4.256-0.441-5.34,1.429
			c-1.074,1.868-0.441,4.256,1.431,5.336c10.567,6.103,25.275,17.783,24.938,24.629c-0.101,2.02-1.944,3.847-5.47,5.43l-2.615,1.154
			c-12.357,5.394-33.02,14.409-34.675,44.3v148.806c0,1.723,1.122,3.233,2.764,3.738c0.368,0.116,0.751,0.169,1.146,0.169
			c1.28,0,2.497-0.625,3.242-1.724c10.049-14.888,97.212-146.233,64.788-174.295C138.469,56.633,127.285,50.117,115.144,54.483z"/>
		<path d="M154.298,7.985c-13.244-10.149-32.639-3.573-33.454-3.288c-2.028,0.713-3.109,2.936-2.404,4.967
			c0.705,2.028,2.93,3.109,4.965,2.412c0.165-0.074,16.282-5.528,26.157,2.126c6.407,4.923,9.137,14.501,8.11,28.459
			c-0.168,2.142,1.451,4.018,3.603,4.174c0.093,0.008,0.177,0.016,0.293,0.016c2.023,0,3.739-1.568,3.879-3.618
			C166.689,26.465,162.947,14.593,154.298,7.985z"/>
		<path d="M134.75,13.655c3.586,0,6.5,2.914,6.5,6.504c0,3.597-2.914,6.508-6.5,6.508c-3.603,0-6.517-2.912-6.517-6.508
			C128.234,16.569,131.148,13.655,134.75,13.655z"/>
	</g>
</g>
</svg>