<?xml version="1.0" encoding="iso-8859-1"?>
<!-- Uploaded to: SVG Repo, www.svgrepo.com, Generator: SVG Repo Mixer Tools -->
<!DOCTYPE svg PUBLIC "-//W3C//DTD SVG 1.1//EN" "http://www.w3.org/Graphics/SVG/1.1/DTD/svg11.dtd">
<svg fill="#007229" version="1.1" id="Capa_1" xmlns="http://www.w3.org/2000/svg" xmlns:xlink="http://www.w3.org/1999/xlink" 
	 width="40px" height="40px" viewBox="0 0 96.836 96.836"
	 xml:space="preserve">
<g>
	<g>
		<path d="M27.945,59.766l-2.087-4.229c-0.672-1.361-2.421-2.161-3.903-1.768L9.694,56.995c-1.471,0.396-2.857,1.898-2.857,3.423
			v15.749c0,2.893,2.598,5.244,5.503,5.244c1.399,0,2.845-0.547,3.835-1.537c0.99-0.991,1.662-2.309,1.662-3.707v-9.223
			c0-0.631,0.523-1.328,1.133-1.49l7.323-1.965c2.427-0.65,2.622-0.703,2.622-1.502C28.915,61.721,28.912,61.721,27.945,59.766z
			 M22.097,54.735c0.163-0.043,0.333-0.06,0.504-0.064c-0.131,0.01-0.26,0.031-0.387,0.064l-12.26,3.227L22.097,54.735z
			 M25.77,61.558l-7.319,1.965c-1.471,0.395-2.614,1.897-2.614,3.422v9.224c0,0.864-0.348,1.864-0.961,2.478
			c-0.612,0.611-1.437,1.133-2.303,1.133h-0.002c-1.801,0-3.734-1.822-3.734-3.611V60.418c0-0.619,0.778-1.33,1.376-1.49
			l12.144-3.226c0.094-0.025,0.252-0.039,0.356-0.039c0.533,0,1.106,0.32,1.323,0.76l2.102,4.229
			c0.124,0.252,0.25,0.492,0.356,0.707C26.279,61.419,26.041,61.485,25.77,61.558z"/>
		<path d="M59.135,35.089c-7.756,0-13.94,0.42-14.828,0.483c-0.368-0.035-1.258-0.495-1.776-1.034L26.678,17.754
			c-0.515-0.536-1.146-1.7-1.32-2.405l-1.022-4.163c-0.534-2.169-2.064-2.337-2.522-2.337h-0.001c-0.619,0-1.768,0.248-2.496,1.904
			l-0.478,1.09c-0.114,0.257-0.748,1.147-1.44,1.822l-0.55,0.536c-0.685,0.668-1.936,1.679-2.732,2.209L3.201,23.667
			c-3.05,1.792-4.107,5.715-2.354,8.782c1.125,2.004,3.268,3.258,5.585,3.258c0.389,0,0.779-0.156,1.16-0.227l8.311-1.701h0.006
			c0.27,0,0.548,0.304,0.606,0.424l13.072,26.509c0.313,0.634,0.542,1.929,0.471,2.633l-1.164,11.503
			c-0.193,1.921,0.982,3.979,2.735,4.782l14.322,6.557c0.818,0.375,1.688,0.566,2.585,0.566c0.095,0,0.186-0.016,0.279-0.02
			c0.557,0.471,1.201,0.832,1.92,1.043c0.479,0.14,0.974,0.211,1.471,0.211c2.315,0,4.385-1.553,5.031-3.775l2.587-8.854
			c0.239-0.817,1.061-1.968,1.758-2.459l5.145-3.629c0.078,0.188,0.164,0.377,0.271,0.553L75.098,83.2
			c1.128,1.863,3.17,3.022,5.328,3.022c1.1,0,2.175-0.298,3.108-0.862c1.365-0.826,2.33-2.147,2.717-3.722
			c0.398-1.624,0.137-3.312-0.736-4.753l-4.722-7.845c-0.104-0.175-0.207-0.345-0.302-0.503c0.11-0.137,0.229-0.283,0.354-0.438
			l3.131-3.859c0.944-1.16,1.653-3.131,1.685-4.684l0.442-13.167c0.311,0.478,0.733,0.886,0.733,1.097v13.981
			c0,2.198,1.746,4.31,3.944,4.31h2.926c2.039,0,3.13-1.697,3.13-4.31V47.335C96.836,39.209,84.262,35.089,59.135,35.089z
			 M60.65,71.262c-1.072,0.757-2.27,2.274-2.637,3.534l-2.643,8.854c-0.4,1.375-1.707,2.336-3.139,2.336
			c-0.198,0-0.408-0.025-0.604-0.062c1.128-0.638,2.057-1.608,2.614-2.831c0.692-1.514,0.751-3.204,0.17-4.762
			c-0.562-1.508-1.67-2.705-3.112-3.411l1.664-5.151c0.229-0.703,1.082-1.523,1.794-1.721l2.604-0.719
			c0.948-0.264,2.58-0.484,3.563-0.485l5.496-0.003c0.003-0.018,0.007-0.036,0.012-0.053c0.026,0.023,0.192,0.145,0.187,0.197
			l0.218,0.035c0,0.01,0,0.021,0,0.032L60.65,71.262z M67.638,64.26l-0.03,0.022c-0.158,0.164-0.295,0.496-0.423,0.496l-6.261,0.035
			c-1.17,0-2.969,0.262-4.096,0.572l-2.603,0.727c-1.368,0.379-2.729,1.687-3.164,3.037l-1.592,4.922
			c-1.85-0.838-4.813-2.178-6.704-3.043c-0.219-0.101-0.426-0.47-0.405-0.653l0.71-6.481c0.043-0.014,0.106-0.115,0.187-0.115
			h24.746l-0.333,0.406L67.638,64.26z M67.379,67.583l-0.939,0.662c-0.032-0.202-0.053-0.407-0.06-0.613
			c0.008,0.202,0.027,0.402,0.06,0.598l0.939-0.686c-0.006-0.264,0.017-0.446,0.062-0.65C67.406,67.122,67.375,67.353,67.379,67.583
			z M67.656,66.073c0.019-0.071,0.039-0.15,0.06-0.233h0.017C67.697,65.915,67.686,65.997,67.656,66.073z M94.836,61.469
			c0,1.077-0.053,2.31-1.13,2.31h-2.926c-1.077,0-1.944-1.232-1.944-2.31c0-3.89,0-12.376,0-13.981c0-1.396-1.704-3.301-3.053-4.418
			c-0.227-0.187-0.574-0.271-0.781-0.271c-0.551,0-1.04,0.591-1.055,1.375l-0.257,15.345c-0.021,1.077-0.573,2.627-1.254,3.463
			l-3.135,3.854c-0.681,0.835-1.229,1.522-1.229,1.536c0,0.015,0.452,0.775,1.007,1.697l4.724,7.852
			c1.207,1.99,0.614,4.564-1.306,5.727c-0.645,0.391-1.36,0.576-2.073,0.576c-1.414,0-2.815-0.732-3.617-2.056l-8.102-13.37
			c-0.134-0.223-0.226-0.471-0.278-0.73c-0.086-0.414-0.071-0.856,0.036-1.271c0.065-0.248,0.168-0.483,0.301-0.697
			c0.083-0.135,0.176-0.263,0.283-0.376l0.391-0.383l2.35-2.311c0.746-0.776,0.479-1.252-0.599-1.252H43.258
			c-1.077,0-2.045,0.713-2.162,1.785l-0.723,6.551c-0.117,1.07,0.582,2.264,1.562,2.711c1.966,0.899,5.093,2.322,6.922,3.152
			c0.361,0.164,0.676,0.307,0.916,0.416c0.346,0.157,0.55,0.25,0.55,0.25c0.127,0.057,0.235,0.137,0.354,0.206
			c1.868,1.081,2.659,3.405,1.742,5.407c-0.56,1.223-1.634,2.053-2.85,2.357c-0.336,0.086-0.682,0.137-1.032,0.137
			c-0.026,0-0.053-0.008-0.078-0.008c-0.393-0.008-0.785-0.086-1.174-0.207c-0.168-0.053-0.337-0.092-0.501-0.166l-14.322-6.553
			c-0.979-0.447-1.686-1.682-1.577-2.752l1.164-11.488c0.108-1.072-0.19-2.725-0.668-3.69L18.311,33.44
			c-0.416-0.843-1.417-1.422-2.369-1.422c-0.139,0-0.276,0.012-0.411,0.038l-8.303,1.58c-0.263,0.049-0.529,0.073-0.794,0.073
			c-1.534,0-3.039-0.808-3.849-2.25c-1.22-2.133-0.448-4.875,1.674-6.091l10.965-7.291c0.897-0.596,2.25-1.69,3.021-2.442
			l0.551-0.537c0.771-0.752,1.61-1.849,1.875-2.45l0.478-1.089c0.208-0.474,0.446-0.709,0.666-0.709
			c0.236,0,0.452,0.274,0.586,0.817l1.028,4.162c0.258,1.046,1.072,2.524,1.818,3.301l15.885,16.795
			c0.746,0.777,2.224,1.651,3.301,1.651c0,0,6.348-0.485,14.704-0.485c14.971-0.002,35.699,1.554,35.699,10.244V61.469z"/>
	</g>
</g>
</svg>