<?xml version="1.0" encoding="iso-8859-1"?>
<!-- Uploaded to: SVG Repo, www.svgrepo.com, Generator: SVG Repo Mixer Tools -->
<svg fill="#007229" height="40px" width="40px" version="1.1" id="Layer_1" xmlns="http://www.w3.org/2000/svg" xmlns:xlink="http://www.w3.org/1999/xlink" 
	 viewBox="0 0 512.001 512.001" xml:space="preserve">
<g>
	<g>
		<path d="M511.692,359.925c-0.659-2.353-16.563-58.336-53.358-121.11c-21.686-36.999-46.145-68.57-72.694-93.839
			c-33.461-31.848-70.355-53.727-109.654-65.03c-4.406-1.267-8.997,1.277-10.263,5.678c-1.266,4.402,1.276,8.997,5.678,10.263
			c36.645,10.54,71.18,31.047,102.644,60.952c25.405,24.146,48.882,54.433,69.778,90.021
			c28.676,48.837,44.612,94.502,49.897,111.021l-9.005,4.503l-50.419-8.403c-1.157-0.191-2.341-0.138-3.475,0.16
			c-11.522,3.031-35.365,17.7-47.792,51.814c-1.916-8.505-3.731-20.387-3.731-34.946c0-2.862-1.475-5.521-3.904-7.036
			c-2.427-1.515-5.466-1.671-8.036-0.414c-0.148,0.073-16.886,6.707-71.141-0.282c28.671-10.362,43.319-20.284,44.099-20.82
			c3.774-2.595,4.731-7.758,2.135-11.533c-2.594-3.774-7.758-4.732-11.533-2.135c-0.917,0.63-93.766,62.675-277.112,34.026
			c-4.518-0.703-8.767,2.389-9.475,6.914c-0.707,4.525,2.389,8.767,6.914,9.475c35.391,5.529,67.459,7.72,96.064,7.72
			c30.474,0,57.014-2.487,79.439-6.071l-7.73,22.89c-0.808,2.395-0.481,5.029,0.891,7.152l8.356,12.937
			c3.457,5.353,9.327,8.55,15.699,8.55h12.015c0.008,0,0.015,0.001,0.023,0.001c0.009,0,0.019-0.001,0.029-0.001h8.811
			c4.58,0,8.294-3.713,8.294-8.294s-3.713-8.294-8.294-8.294h-3.721l-2.751-5.503c24.36-11.992,34.461-22.746,38.576-30.199
			c34.532,4.255,54.872,3.168,66.053,1.407c1.564,27.98,8.9,45.108,9.248,45.905c1.319,3.022,4.304,4.976,7.601,4.976h17.693
			c4.58,0,8.294-3.713,8.294-8.294s-3.713-8.294-8.294-8.294h-0.333c10.274-32.668,30.867-42.897,36.424-45.107l51.012,8.502
			c1.728,0.289,3.504,0.022,5.072-0.763l17.693-8.847C510.97,367.802,512.764,363.752,511.692,359.925z M283.093,371.154
			c0.002,0.01-1.643,2.621-3.407,4.661c-4.463,5.164-14.317,13.35-35.918,23.009c-2.065,0.923-3.662,2.651-4.424,4.779
			c-0.762,2.13-0.62,4.477,0.391,6.5l2.013,4.025l-5.73-8.873l8.304-24.591c0.345-1.023,0.473-2.065,0.42-3.081
			c8.088-1.649,15.508-3.409,22.234-5.196c6.013-1.597,11.654-3.253,16.925-4.929C283.357,368.6,283.069,369.861,283.093,371.154z"
			/>
	</g>
</g>
<g>
	<g>
		<path d="M201.675,339.864c-104.831-2.893-190.792-21.017-191.648-21.2c-4.479-0.959-8.886,1.9-9.843,6.378
			c-0.957,4.479,1.899,8.885,6.377,9.843c0.87,0.186,88.229,18.623,194.655,21.559c0.078,0.002,0.155,0.003,0.233,0.003
			c4.474,0,8.162-3.564,8.286-8.065C209.863,343.804,206.254,339.99,201.675,339.864z"/>
	</g>
</g>
<g>
	<g>
		<path d="M430.112,256.887c-34.209-72.49-95.028-113.415-140.025-134.981c-23.073-11.058-48.301-20.077-72.959-26.082
			c-18.91-4.605-37.45-7.354-49.594-7.354c-4.58,0-8.294,3.713-8.294,8.294c0,4.58,3.713,8.293,8.294,8.293
			c19.704,0,66.693,8.471,115.384,31.807c42.572,20.405,100.063,59.018,132.193,127.101c1.415,2.999,4.397,4.756,7.506,4.756
			c1.185,0,2.391-0.257,3.534-0.795C430.294,265.972,432.067,261.029,430.112,256.887z"/>
	</g>
</g>
<g>
	<g>
		<path d="M395.824,267.793c-0.651-1.596-16.517-39.519-63.867-77.428c-27.587-22.086-60.261-39.634-97.115-52.16
			c-45.793-15.563-98.187-23.38-155.799-23.197c-4.58,0.013-8.283,3.738-8.269,8.318c0.014,4.574,3.724,8.27,8.294,8.27
			c0.008,0,0.018,0,0.025,0c55.406-0.16,105.787,7.258,149.663,22.061c34.949,11.791,65.898,28.27,91.987,48.981
			c44.403,35.249,59.585,71.088,59.727,71.429c1.313,3.212,4.411,5.159,7.68,5.159c1.045,0,2.108-0.199,3.135-0.619
			C395.525,276.875,397.557,272.034,395.824,267.793z"/>
	</g>
</g>
<g>
	<g>
		<path d="M369.486,287.502c-0.685-1.291-17.197-31.975-54.714-64.322c-34.498-29.742-94.084-66.51-182.036-72.765
			c-4.578-0.333-8.536,3.115-8.861,7.684c-0.325,4.569,3.115,8.537,7.684,8.861c83.068,5.907,139.284,40.4,171.817,68.296
			c35.392,30.347,51.306,59.733,51.457,60.017c1.489,2.809,4.361,4.41,7.333,4.41c1.312,0,2.641-0.312,3.879-0.969
			C370.092,296.569,371.633,291.548,369.486,287.502z"/>
	</g>
</g>
<g>
	<g>
		<path d="M328.785,289.069c-0.479-0.826-12.039-20.485-38.701-43.04c-24.357-20.605-66.649-47.756-129.807-60.094
			c-4.494-0.872-8.851,2.053-9.73,6.55c-0.879,4.496,2.053,8.852,6.55,9.73c59.261,11.577,98.864,36.817,121.651,55.953
			c24.732,20.768,35.592,39.058,35.691,39.225c1.538,2.653,4.322,4.134,7.181,4.134c1.412,0,2.844-0.362,4.153-1.121
			C329.735,298.107,331.084,293.031,328.785,289.069z"/>
	</g>
</g>
<g>
	<g>
		<path d="M266.322,319.085c-0.791-0.087-79.825-8.94-149.38-17.497c-4.546-0.554-8.685,2.673-9.245,7.219s2.673,8.685,7.219,9.245
			c69.644,8.569,148.77,17.431,149.562,17.52c0.313,0.035,0.624,0.052,0.932,0.052c4.168,0,7.757-3.133,8.232-7.373
			C274.151,323.697,270.874,319.594,266.322,319.085z"/>
	</g>
</g>
<g>
	<g>
		<path d="M289.879,291.53c-0.587-0.773-14.721-19.126-43.623-36.963c-26.445-16.321-70.956-35.364-132.803-33.393
			c-4.578,0.146-8.171,3.975-8.025,8.554c0.146,4.579,3.983,8.21,8.554,8.025c57.342-1.825,98.476,15.587,122.887,30.514
			c26.539,16.229,39.688,33.149,39.806,33.303c1.632,2.146,4.105,3.274,6.607,3.274c1.751,0,3.514-0.552,5.014-1.692
			C291.943,300.38,292.651,295.176,289.879,291.53z"/>
	</g>
</g>
<g>
	<g>
		<path d="M243.925,290.102c-0.825-0.475-20.603-11.754-54.83-19.957c-31.354-7.514-81.438-13.768-141.98-0.876
			c-4.481,0.953-7.339,5.359-6.385,9.839c0.954,4.481,5.358,7.343,9.84,6.385c57.188-12.176,104.424-6.384,133.98,0.62
			c32.108,7.609,50.913,18.256,51.088,18.357c1.306,0.753,2.73,1.111,4.137,1.111c2.866,0,5.656-1.49,7.191-4.15
			C249.254,297.464,247.893,292.392,243.925,290.102z"/>
	</g>
</g>
<g>
	<g>
		<path d="M471.857,329.276c-5.336,0-9.676,4.34-9.676,9.676s4.34,9.676,9.676,9.676s9.676-4.34,9.676-9.676
			S477.193,329.276,471.857,329.276z"/>
	</g>
</g>
</svg>